<?xml version="1.0" encoding="utf-8"?>
<!-- Generator: Adobe Illustrator 16.0.0, SVG Export Plug-In . SVG Version: 6.00 Build 0)  -->
<!DOCTYPE svg PUBLIC "-//W3C//DTD SVG 1.1//EN" "http://www.w3.org/Graphics/SVG/1.1/DTD/svg11.dtd">
<svg version="1.1" id="Layer_1" xmlns="http://www.w3.org/2000/svg" xmlns:xlink="http://www.w3.org/1999/xlink" x="0px" y="0px"
	 width="193.547px" height="58.088px" viewBox="0 0 193.547 58.088" enable-background="new 0 0 193.547 58.088"
	 xml:space="preserve">
<g>
	<path fill="#4DBED2" d="M74.57,27.747c-0.666,0.049-1.309,0.248-1.887,0.582c-0.678,0.392-1.242,0.955-1.633,1.632
		c-0.334,0.576-0.533,1.222-0.584,1.888h-0.027c-0.051-0.666-0.248-1.311-0.582-1.888c-0.393-0.677-0.955-1.24-1.633-1.632
		c-0.576-0.334-1.223-0.533-1.887-0.582v-0.029c0.664-0.048,1.311-0.248,1.887-0.581c0.678-0.393,1.24-0.955,1.633-1.633
		c0.334-0.577,0.531-1.223,0.582-1.887h0.027c0.051,0.664,0.25,1.31,0.584,1.887c0.391,0.678,0.955,1.24,1.633,1.633
		c0.578,0.333,1.221,0.533,1.887,0.581V27.747z"/>
	<path fill="#0B5D84" d="M79.636,35.938v4.243H58.718v-24.9h20.881v4.242H63.558l0,0l0,0l0,0v16.415l0,0H79.636z M100.553,15.282
		c1.402,0,2.607,0.203,3.615,0.609c1.008,0.405,1.838,0.947,2.49,1.623c0.652,0.677,1.131,1.47,1.439,2.379
		c0.307,0.911,0.461,1.857,0.461,2.841c0,0.787-0.098,1.567-0.295,2.343c-0.197,0.774-0.504,1.5-0.922,2.177
		c-0.42,0.676-0.959,1.272-1.623,1.788c-0.664,0.517-1.477,0.911-2.436,1.181l5.791,9.959h-4.832l-5.682-9.627h-6.493
		c-0.418,0-0.627,0.209-0.627,0.627v9h-4.354v-9.849c0-1.402,0.307-2.41,0.922-3.025c0.615-0.614,1.611-0.922,2.988-0.922h9.704
		c0.613,0,1.143-0.098,1.586-0.295s0.799-0.455,1.07-0.775c0.27-0.318,0.473-0.688,0.607-1.106c0.137-0.418,0.203-0.849,0.203-1.291
		c0-0.886-0.277-1.653-0.83-2.306c-0.553-0.651-1.432-0.978-2.637-0.978H87.05v-4.354H100.553z M131.801,15.282v4.354h-7.268v20.546
		h-4.391V19.635h-7.268v-4.354H131.801z M137.629,40.182h-4.797l8.744-22.132c0.467-1.181,1.125-2.011,1.973-2.49
		c0.85-0.479,1.938-0.72,3.266-0.72c1.303,0,2.379,0.24,3.229,0.72c0.848,0.479,1.494,1.31,1.936,2.49l8.412,22.132h-4.832
		l-7.564-20.03c-0.221-0.565-0.627-0.849-1.217-0.849s-1.008,0.283-1.254,0.849L137.629,40.182z M170.24,40.182h-4.354V20.262
		c0-1.623,0.467-2.933,1.402-3.929c0.934-0.996,2.373-1.494,4.316-1.494c1.721,0,3.029,0.412,3.928,1.236s1.605,1.949,2.121,3.375
		l7.268,15.9c0.148,0.294,0.344,0.541,0.592,0.737c0.244,0.197,0.576,0.296,0.994,0.296c0.467,0,0.83-0.13,1.09-0.389
		c0.258-0.259,0.387-0.596,0.387-1.015V15.282h4.389v19.883c0,1.647-0.473,2.97-1.418,3.966c-0.949,0.996-2.381,1.494-4.299,1.494
		c-0.861,0-1.617-0.105-2.27-0.313c-0.65-0.209-1.217-0.518-1.695-0.924c-0.48-0.406-0.893-0.891-1.236-1.456
		c-0.346-0.565-0.641-1.205-0.887-1.919l-7.266-15.899c-0.32-0.713-0.838-1.069-1.551-1.069c-0.492,0-0.867,0.129-1.125,0.387
		c-0.258,0.259-0.387,0.608-0.387,1.052V40.182z"/>
	<g>
		<path fill="#0B5D84" d="M59.857,44.957v4.281c0,0.324,0.084,0.57,0.252,0.744c0.168,0.176,0.438,0.262,0.811,0.262h1.139
			c0.361,0,0.627-0.086,0.799-0.262c0.17-0.174,0.256-0.42,0.256-0.744v-4.281h1.102v4.367c0,0.678-0.174,1.186-0.521,1.529
			c-0.35,0.34-0.867,0.512-1.559,0.512h-1.348c-1.379,0-2.068-0.682-2.068-2.041v-4.367H59.857z"/>
		<path fill="#0B5D84" d="M70.308,44.957v4.186c0,0.154,0.02,0.297,0.061,0.434c0.041,0.135,0.113,0.254,0.213,0.35
			c0.102,0.098,0.236,0.176,0.404,0.234c0.168,0.057,0.379,0.084,0.631,0.084h2.486v1.121H71.55c-0.424,0-0.785-0.057-1.086-0.168
			c-0.301-0.109-0.547-0.262-0.736-0.459s-0.328-0.428-0.412-0.697c-0.086-0.27-0.129-0.566-0.129-0.889v-4.195H70.308z"/>
		<path fill="#0B5D84" d="M79.619,44.957v4.281c0,0.324,0.084,0.57,0.252,0.744c0.168,0.176,0.438,0.262,0.811,0.262h1.139
			c0.361,0,0.627-0.086,0.799-0.262c0.17-0.174,0.256-0.42,0.256-0.744v-4.281h1.102v4.367c0,0.678-0.176,1.186-0.523,1.529
			c-0.346,0.34-0.867,0.512-1.555,0.512h-1.35c-1.379,0-2.068-0.682-2.068-2.041v-4.367H79.619z"/>
		<path fill="#0B5D84" d="M93.382,44.957v1.119h-1.871v5.289h-1.129v-5.289h-1.869v-1.119H93.382z"/>
		<path fill="#0B5D84" d="M111.918,44.957c0.359,0,0.67,0.053,0.93,0.158c0.26,0.104,0.473,0.242,0.641,0.416
			s0.291,0.379,0.371,0.613c0.078,0.234,0.117,0.477,0.117,0.73c0,0.203-0.025,0.402-0.074,0.604
			c-0.051,0.197-0.131,0.385-0.238,0.559s-0.246,0.328-0.418,0.461c-0.17,0.133-0.379,0.234-0.625,0.303l1.488,2.564h-1.242
			l-1.463-2.479h-1.67c-0.107,0-0.162,0.055-0.162,0.162v2.316h-1.119V48.83c0-0.361,0.08-0.619,0.236-0.779
			c0.158-0.156,0.416-0.236,0.77-0.236h2.496c0.158,0,0.295-0.025,0.408-0.076c0.115-0.051,0.205-0.117,0.275-0.199
			s0.123-0.178,0.156-0.285c0.035-0.107,0.053-0.217,0.053-0.332c0-0.227-0.07-0.426-0.213-0.594
			c-0.143-0.166-0.369-0.252-0.68-0.252h-3.512v-1.119H111.918z"/>
		<path fill="#0B5D84" d="M119.9,44.957v2.715h0.615c0.271,0,0.496-0.008,0.67-0.023s0.318-0.053,0.432-0.109
			c0.115-0.057,0.211-0.137,0.289-0.242c0.08-0.104,0.164-0.244,0.252-0.422l0.979-1.918h1.205l-1.006,1.994
			c-0.145,0.283-0.301,0.521-0.465,0.711c-0.166,0.189-0.381,0.342-0.646,0.455c0.152,0.039,0.285,0.092,0.398,0.158
			s0.221,0.148,0.318,0.246s0.191,0.215,0.281,0.352c0.088,0.137,0.18,0.295,0.273,0.479l1.035,2.014h-1.252l-0.979-1.9
			c-0.088-0.168-0.174-0.305-0.256-0.406s-0.188-0.182-0.313-0.238c-0.127-0.055-0.285-0.092-0.477-0.109
			c-0.189-0.014-0.436-0.023-0.74-0.023H119.9v2.678h-1.121v-6.408H119.9z"/>
		<g>
			<rect x="100.168" y="44.957" fill="#0B5D84" width="1.014" height="1.867"/>
			<path fill="#0B5D84" d="M99.066,44.957v4.281c0,0.324,0.084,0.57,0.25,0.744c0.17,0.176,0.439,0.262,0.813,0.262h1.139
				c0.361,0,0.627-0.086,0.799-0.262c0.17-0.174,0.256-0.42,0.256-0.744v-4.281h1.102v4.367c0,0.678-0.174,1.186-0.521,1.529
				c-0.35,0.34-0.869,0.512-1.559,0.512h-1.348c-1.379,0-2.068-0.682-2.068-2.041v-4.367H99.066z"/>
		</g>
	</g>
	<path fill="#0B5D84" d="M1.568,10.198v45.81h45.811v-45.81H1.568z M36.406,42.463v4.844H12.541V18.898h23.822v4.84h-18.3l0,0l0,0
		l0,0v18.725l0,0H36.406z M30.625,33.118c-0.758,0.056-1.494,0.283-2.151,0.664c-0.774,0.446-1.417,1.089-1.863,1.862
		c-0.381,0.658-0.609,1.395-0.666,2.153h-0.033c-0.057-0.759-0.283-1.494-0.664-2.153c-0.447-0.772-1.089-1.414-1.862-1.862
		c-0.658-0.381-1.394-0.608-2.152-0.664v-0.032c0.758-0.057,1.494-0.284,2.152-0.664c0.773-0.447,1.415-1.09,1.862-1.863
		c0.381-0.658,0.607-1.394,0.664-2.152h0.033c0.057,0.758,0.284,1.494,0.666,2.152c0.447,0.773,1.089,1.416,1.863,1.863
		c0.657,0.38,1.394,0.607,2.151,0.664V33.118z"/>
</g>
</svg>
